<svg width="258" height="387" viewBox="0 0 258 387" fill="none" xmlns="http://www.w3.org/2000/svg">
<g clip-path="url(#clip0_1938_40434)">
<path d="M129 193.5C129 157.959 157.813 129 193.5 129C229.041 129 258 157.813 258 193.5C258 229.041 229.187 258 193.5 258C157.959 258 129 229.041 129 193.5Z" fill="#1ABCFE"/>
<path d="M0 322.5C0 286.959 28.8129 258 64.5 258H129V322.5C129 358.041 100.187 387 64.5 387C28.8129 387 0 358.187 0 322.5Z" fill="#0ACF83"/>
<path d="M129 0.146259V129H193.5C229.041 129 258 100.187 258 64.5C258 28.9592 229.187 0 193.5 0H129V0.146259Z" fill="#FF7262"/>
<path d="M0 64.5C0 100.041 28.8129 129 64.5 129H129V0H64.5C28.8129 0 0 28.8129 0 64.5Z" fill="#F24E1E"/>
<path d="M0 193.5C0 229.041 28.8129 258 64.5 258H129V129H64.5C28.8129 129 0 157.959 0 193.5Z" fill="#A259FF"/>
</g>
<defs>
<clipPath id="clip0_1938_40434">
<rect width="258" height="387" fill="white"/>
</clipPath>
</defs>
</svg>
