<svg width="800" height="800" viewBox="0 0 800 800" fill="none" xmlns="http://www.w3.org/2000/svg">
<g clip-path="url(#clip0_1966_40429)">
<rect width="800" height="800" rx="65" fill="white"/>
<path d="M737.5 0H62.5C27.9687 0 0 27.9687 0 62.5V737.5C0 772.031 27.9687 800 62.5 800H737.5C772.031 800 800 772.031 800 737.5V62.5C800 27.9687 772.031 0 737.5 0ZM753.125 737.5C753.125 746.094 746.094 753.125 737.5 753.125H62.5C53.9062 753.125 46.875 746.094 46.875 737.5V62.5C46.875 53.9062 53.9062 46.875 62.5 46.875H737.5C746.094 46.875 753.125 53.9062 753.125 62.5V737.5Z" fill="black"/>
<path d="M574.219 322.187C575.626 290.781 571.407 260.312 560.782 230.625C559.376 226.875 557.657 225.468 553.751 226.562C545.001 229.218 535.938 231.25 527.344 234.375C503.594 242.968 481.876 255.468 460.782 269.062C458.594 270.468 455.313 271.406 452.657 270.937C418.126 264.843 383.438 265.156 348.751 270.468C345.313 270.937 340.938 270.156 338.126 268.437C313.594 252.5 288.594 236.875 260.001 229.375C236.407 223.125 241.251 221.875 234.532 243.281C226.563 268.906 223.438 295.468 225.157 322.343C225.313 324.218 223.907 326.562 222.657 328.281C212.344 340.625 204.376 354.218 199.532 369.531C190.157 399.218 192.032 429.218 197.969 459.062C209.688 517.656 249.219 558.75 307.657 568.906C337.813 574.218 368.907 574.687 397.188 577.031C428.751 574.687 457.969 574.531 486.407 570C536.094 562.031 573.594 535.625 592.344 487.656C598.907 470.937 602.501 452.656 604.688 434.843C609.532 395.468 602.813 358.593 575.938 327.5C575.001 326.25 574.219 324.062 574.219 322.187ZM548.594 490.781C543.438 515.156 529.219 531.875 505.469 540.468C482.501 548.906 458.751 552.343 434.532 553.906C422.813 554.687 411.094 554.062 399.376 554.062C367.813 554.687 336.251 553.437 305.782 544.375C267.501 532.968 250.313 510.156 249.219 470.156C248.751 455.937 250.313 442.187 257.032 429.375C270.313 403.593 293.282 394.531 320.469 394.062C335.313 393.906 350.313 395.156 365.313 396.562C396.719 399.375 427.813 396.406 459.063 394.687C472.813 393.906 486.876 393.593 500.313 395.937C529.219 400.937 551.094 429.687 551.563 462.031C551.563 471.562 550.469 481.406 548.594 490.781Z" fill="black"/>
<path d="M311.094 437.187C302.5 446.093 299.531 457.343 299.062 467.343C299.062 482.343 303.437 494.375 311.094 502.187C321.719 512.968 336.25 512.656 346.406 501.718C361.719 485.156 361.562 454.062 346.406 437.656C336.25 426.562 321.406 426.406 311.094 437.187Z" fill="black"/>
<path d="M455 435.937C437.5 452.031 437.5 487.5 455 503.437C465.156 512.656 478.906 512.187 488.438 502.344C497.188 493.281 500.312 481.875 500.625 469.531C500.312 457.187 497.188 445.937 488.281 436.875C478.75 427.031 465 426.719 455 435.937Z" fill="black"/>
</g>
<defs>
<clipPath id="clip0_1966_40429">
<rect width="800" height="800" rx="65" fill="white"/>
</clipPath>
</defs>
</svg>
