<svg width="700" height="500" viewBox="0 0 700 500" fill="none" xmlns="http://www.w3.org/2000/svg">
<g clip-path="url(#clip0_1938_40445)">
<path d="M239.035 6.29909C249.699 -2.36888 263.916 -2.36891 274.58 8.03266C299.461 32.303 326.119 58.3068 351 82.5771L313.679 120.716L265.694 73.9092C260.362 68.7084 253.253 68.7084 246.144 72.1756C246.144 72.1756 246.144 72.1756 244.367 73.9092C187.496 127.651 132.403 183.126 75.5317 238.601C70.2 243.801 68.4228 252.469 73.7544 257.67L75.5317 259.404C128.848 311.412 182.165 363.419 235.481 415.427C239.035 420.628 244.367 424.095 249.699 427.562C255.03 429.296 262.139 427.562 265.694 424.095L311.901 379.022L349.223 417.161L278.134 486.505C272.803 491.705 267.471 495.173 262.139 498.64C251.476 502.107 240.813 498.64 233.704 491.705C159.061 418.895 82.6405 344.35 7.99747 271.539C-2.66582 261.137 -2.66582 243.801 7.99747 233.4C86.1949 155.388 162.615 80.8436 239.035 6.29909Z" fill="#9187F6"/>
<path d="M427.653 7.81216C438.279 -2.60405 455.988 -2.60405 466.614 7.81216L691.527 228.289C698.611 235.233 702.152 245.649 698.61 256.065C695.069 263.009 689.756 268.217 684.443 273.425L473.698 481.75C468.385 486.958 463.072 492.166 455.988 495.638C445.363 499.11 434.737 495.638 427.653 488.694L351.501 415.78L314.311 379.324L200.969 268.217C190.344 257.801 190.344 240.441 200.969 231.761L312.54 122.39L351.501 84.1976C376.295 58.1571 402.859 33.8527 427.653 7.81216Z" fill="#8313DD"/>
</g>
<defs>
<clipPath id="clip0_1938_40445">
<rect width="700" height="500" fill="white"/>
</clipPath>
</defs>
</svg>
