<svg width="500" height="500" viewBox="0 0 500 500" fill="none" xmlns="http://www.w3.org/2000/svg">
<path d="M450.54 106C440.86 78.2699 418.67 54.4299 392.33 41.4399C355.9 23.4399 307.5 34.7399 282.77 66.9599C269.29 84.5199 262.91 106.31 254.14 126.62C245.37 146.93 232.67 167.35 212.34 176.11C189.17 186.11 162.19 178.49 137.45 183.48C98.71 191.3 71.45 231.48 72.09 271.01C72.45 291.75 79.54 311.42 90.97 328.55C105.78 350.73 127.58 367.29 152.58 376.61C201.93 395 262.12 406 312.71 395.87C370.97 384.25 429.71 338.87 451.76 283.73C462.67 256.44 462.98 222.32 463.13 192.92C463.28 163.52 460.23 133.72 450.54 106Z" fill="#DACDF3"/>
<path d="M7.25 348.65L10.98 361.75L366.69 465.05L489.04 384.31V373.29L7.25 348.65Z" fill="#E0E0E0"/>
<path d="M134.86 289.38L489.04 373.29L366.69 453.13L7.25 348.65L134.86 289.38Z" fill="#EBEBEB"/>
<path d="M375.91 447.61C374.569 450.56 373.074 453.437 371.43 456.23C369.936 459.107 368.287 461.902 366.49 464.6C369.322 458.768 372.467 453.093 375.91 447.6V447.61Z" fill="#EBEBEB"/>
<path d="M387.6 440C386.259 442.95 384.764 445.827 383.12 448.62C381.626 451.497 379.977 454.292 378.18 456.99C381.012 451.158 384.157 445.483 387.6 439.99V440Z" fill="#EBEBEB"/>
<path d="M399.29 432.36C397.949 435.31 396.454 438.187 394.81 440.98C393.319 443.859 391.67 446.653 389.87 449.35C392.702 443.518 395.847 437.843 399.29 432.35V432.36Z" fill="#EBEBEB"/>
<path d="M411 424.74C409.659 427.69 408.164 430.567 406.52 433.36C405.026 436.237 403.377 439.032 401.58 441.73C404.412 435.898 407.557 430.223 411 424.73V424.74Z" fill="#EBEBEB"/>
<path d="M422.67 417.12C421.329 420.07 419.834 422.947 418.19 425.74C416.696 428.617 415.047 431.412 413.25 434.11C414.587 431.155 416.083 428.274 417.73 425.48C419.222 422.605 420.871 419.814 422.67 417.12Z" fill="#EBEBEB"/>
<path d="M434.36 409.49C433.019 412.44 431.524 415.317 429.88 418.11C428.389 420.989 426.74 423.783 424.94 426.48C427.772 420.648 430.917 414.973 434.36 409.48V409.49Z" fill="#EBEBEB"/>
<path d="M446.05 401.87C444.709 404.82 443.214 407.697 441.57 410.49C440.076 413.367 438.427 416.162 436.63 418.86C439.462 413.028 442.607 407.353 446.05 401.86V401.87Z" fill="#EBEBEB"/>
<path d="M457.74 394.25C456.394 397.198 454.899 400.075 453.26 402.87C451.768 405.745 450.119 408.536 448.32 411.23C449.656 408.278 451.152 405.4 452.8 402.61C454.292 399.735 455.941 396.944 457.74 394.25Z" fill="#EBEBEB"/>
<path d="M469.43 386.62C468.089 389.57 466.594 392.447 464.95 395.24C463.456 398.117 461.807 400.912 460.01 403.61C462.842 397.778 465.987 392.103 469.43 386.61V386.62Z" fill="#EBEBEB"/>
<path d="M481.12 379C479.779 381.95 478.284 384.827 476.64 387.62C475.147 390.501 473.498 393.298 471.7 396C473.037 393.045 474.533 390.164 476.18 387.37C477.672 384.491 479.321 381.697 481.12 379Z" fill="#EBEBEB"/>
<path d="M489.05 378.16C488.336 379.975 487.466 381.725 486.45 383.39C485.579 385.143 484.555 386.817 483.39 388.39C484.099 386.573 484.969 384.822 485.99 383.16C486.854 381.403 487.878 379.729 489.05 378.16Z" fill="#EBEBEB"/>
<path d="M363.56 464C362.812 463.396 362.119 462.727 361.49 462C360.26 460.69 358.62 458.83 356.89 456.72C355.16 454.61 353.65 452.64 352.6 451.19C351.99 450.439 351.457 449.628 351.01 448.77C351.695 449.452 352.323 450.187 352.89 450.97L357.29 456.39L361.76 461.75C362.419 462.451 363.021 463.203 363.56 464Z" fill="#EBEBEB"/>
<path d="M347.07 459.26C346.316 458.663 345.622 457.993 345 457.26C343.77 455.95 342.13 454.1 340.4 451.99C338.67 449.88 337.16 447.91 336.11 446.46C335.501 445.705 334.968 444.891 334.52 444.03C335.202 444.715 335.83 445.45 336.4 446.23L340.8 451.66C342.49 453.66 344.02 455.51 345.27 457.02C345.93 457.716 346.532 458.465 347.07 459.26Z" fill="#EBEBEB"/>
<path d="M330.58 454.57C329.826 453.973 329.132 453.303 328.51 452.57C327.28 451.26 325.64 449.41 323.91 447.3C322.18 445.19 320.67 443.22 319.62 441.77C319.008 441.017 318.475 440.202 318.03 439.34C318.715 440.021 319.344 440.757 319.91 441.54L324.31 446.97L328.78 452.33C329.438 453.029 330.039 453.777 330.58 454.57Z" fill="#EBEBEB"/>
<path d="M314.09 449.89C313.339 449.29 312.646 448.62 312.02 447.89C310.79 446.58 309.15 444.72 307.42 442.61C305.69 440.5 304.18 438.53 303.13 437.08C302.52 436.329 301.987 435.518 301.54 434.66C302.228 435.339 302.857 436.075 303.42 436.86L307.82 442.28L312.29 447.64C312.953 448.337 313.555 449.09 314.09 449.89Z" fill="#EBEBEB"/>
<path d="M297.6 445.2C296.846 444.603 296.152 443.933 295.53 443.2C294.3 441.89 292.66 440.04 290.93 437.93C289.2 435.82 287.69 433.85 286.64 432.4C286.031 431.645 285.498 430.831 285.05 429.97C285.735 430.651 286.364 431.387 286.93 432.17L291.33 437.6C293.02 439.6 294.55 441.45 295.8 442.96C296.464 443.653 297.066 444.402 297.6 445.2Z" fill="#EBEBEB"/>
<path d="M281.11 440.51C280.356 439.913 279.662 439.243 279.04 438.51C277.81 437.2 276.17 435.35 274.44 433.24C272.71 431.13 271.2 429.16 270.15 427.71C269.538 426.957 269.005 426.142 268.56 425.28C269.246 425.964 269.875 426.703 270.44 427.49L274.84 432.91L279.31 438.27C279.971 438.965 280.573 439.715 281.11 440.51Z" fill="#EBEBEB"/>
<path d="M264.62 435.83C263.866 435.233 263.172 434.563 262.55 433.83C261.32 432.52 259.68 430.67 257.95 428.55C256.22 426.43 254.71 424.47 253.66 423.02C253.05 422.269 252.517 421.458 252.07 420.6C252.758 421.279 253.387 422.015 253.95 422.8L258.35 428.22L262.82 433.58C263.483 434.277 264.085 435.03 264.62 435.83Z" fill="#EBEBEB"/>
<path d="M248.13 430.21C247.376 429.613 246.682 428.943 246.06 428.21C244.84 426.9 243.19 425.05 241.46 422.94C239.73 420.83 238.22 418.86 237.17 417.41C236.558 416.657 236.025 415.842 235.58 414.98C236.265 415.661 236.894 416.397 237.46 417.18L241.86 422.61L246.33 427.97C246.991 428.665 247.593 429.414 248.13 430.21Z" fill="#EBEBEB"/>
<path d="M229.78 425.11C229.021 424.515 228.324 423.845 227.7 423.11C226.48 421.8 224.84 419.95 223.1 417.84C221.36 415.73 219.86 413.76 218.82 412.31C218.215 411.55 217.679 410.736 217.22 409.88C217.91 410.559 218.543 411.295 219.11 412.08L223.5 417.51C225.2 419.51 226.73 421.37 227.98 422.87C228.64 423.566 229.242 424.315 229.78 425.11Z" fill="#EBEBEB"/>
<path d="M211.42 420C210.666 419.403 209.972 418.733 209.35 418C208.12 416.69 206.48 414.84 204.75 412.73C203.02 410.62 201.51 408.65 200.46 407.19C199.85 406.439 199.317 405.628 198.87 404.77C199.558 405.449 200.187 406.185 200.75 406.97C201.98 408.49 203.49 410.34 205.15 412.4L209.62 417.75C210.283 418.447 210.885 419.2 211.42 420Z" fill="#EBEBEB"/>
<path d="M193 414.08C192.246 413.483 191.552 412.813 190.93 412.08C189.71 410.77 188.06 408.92 186.33 406.81C184.6 404.7 183 402.7 182 401.25C181.391 400.495 180.858 399.681 180.41 398.82C181.095 399.501 181.724 400.237 182.29 401.02L186.69 406.45L191.16 411.81C191.837 412.513 192.452 413.273 193 414.08Z" fill="#EBEBEB"/>
<path d="M174.48 408.91C173.726 408.313 173.032 407.643 172.41 406.91C171.19 405.6 169.54 403.75 167.81 401.64C166.08 399.53 164.57 397.56 163.52 396.11C162.911 395.355 162.378 394.541 161.93 393.68C162.615 394.361 163.244 395.097 163.81 395.88C165.05 397.4 166.55 399.26 168.21 401.31L172.69 406.67C173.351 407.363 173.949 408.113 174.48 408.91Z" fill="#EBEBEB"/>
<path d="M155.9 403.48C155.146 402.883 154.452 402.213 153.83 401.48C152.6 400.17 150.96 398.32 149.22 396.21C147.48 394.1 145.99 392.13 144.94 390.67C144.334 389.914 143.798 389.104 143.34 388.25C144.033 388.926 144.666 389.663 145.23 390.45L149.63 395.88L154.1 401.23C154.759 401.931 155.361 402.683 155.9 403.48Z" fill="#EBEBEB"/>
<path d="M138 398.45C137.246 397.853 136.552 397.183 135.93 396.45C134.7 395.14 133.06 393.29 131.33 391.18C129.6 389.07 128.09 387.1 127.04 385.64C126.43 384.889 125.897 384.078 125.45 383.22C126.135 383.902 126.763 384.637 127.33 385.42C128.56 386.94 130.07 388.79 131.73 390.85L136.2 396.2C136.859 396.901 137.461 397.653 138 398.45Z" fill="#EBEBEB"/>
<path d="M119.64 393.65C118.886 393.053 118.192 392.383 117.57 391.65C116.35 390.34 114.71 388.49 112.97 386.38C111.23 384.27 109.73 382.3 108.68 380.84C108.074 380.086 107.542 379.275 107.09 378.42C107.78 379.099 108.413 379.835 108.98 380.62L113.37 386.05L117.85 391.41C118.513 392.101 119.112 392.851 119.64 393.65Z" fill="#EBEBEB"/>
<path d="M103.51 388.27C102.756 387.673 102.062 387.003 101.44 386.27C100.22 384.96 98.58 383.11 96.84 381C95.1 378.89 93.6 376.92 92.55 375.46C91.9559 374.691 91.4369 373.868 91 373C91.6934 373.676 92.3259 374.413 92.89 375.2L97.28 380.63L101.76 385.98C102.41 386.69 102.996 387.456 103.51 388.27Z" fill="#EBEBEB"/>
<path d="M87.38 382.89C86.6284 382.29 85.9353 381.621 85.31 380.89C84.09 379.58 82.45 377.73 80.71 375.61C78.97 373.49 77.47 371.53 76.42 370.08C75.8142 369.326 75.2818 368.515 74.83 367.66C75.5234 368.336 76.1559 369.073 76.72 369.86L81.11 375.28L85.59 380.64C86.2523 381.335 86.8513 382.088 87.38 382.89Z" fill="#EBEBEB"/>
<path d="M72.76 378.89C72.0056 378.293 71.3122 377.623 70.69 376.89C69.46 375.58 67.82 373.73 66.09 371.62C64.36 369.51 62.85 367.54 61.8 366.08C61.1898 365.329 60.657 364.518 60.21 363.66C60.8947 364.342 61.5234 365.077 62.09 365.86L66.49 371.28L71 376.61C71.6468 377.322 72.2354 378.084 72.76 378.89Z" fill="#EBEBEB"/>
<path d="M56 374.31C55.2456 373.713 54.5523 373.043 53.93 372.31C52.7 371 51.06 369.15 49.33 367.03C47.6 364.91 46.09 362.95 45.04 361.5C44.4298 360.749 43.8971 359.938 43.45 359.08C44.1381 359.759 44.767 360.495 45.33 361.28L49.73 366.7L54.2 372C54.8659 372.716 55.4682 373.489 56 374.31Z" fill="#EBEBEB"/>
<path d="M40.75 369.88C39.996 369.279 39.2996 368.61 38.67 367.88C37.45 366.58 35.81 364.72 34.07 362.61C32.33 360.5 30.83 358.53 29.79 357.08C29.1792 356.324 28.6433 355.51 28.19 354.65C28.8816 355.332 29.5139 356.071 30.08 356.86L34.47 362.28L39 367.6C39.6434 368.312 40.2286 369.074 40.75 369.88Z" fill="#EBEBEB"/>
<path d="M23.51 364.5C22.7609 363.897 22.068 363.228 21.44 362.5C20.21 361.19 18.57 359.34 16.83 357.23C15.09 355.12 13.6 353.15 12.55 351.7C11.942 350.942 11.4063 350.128 10.95 349.27C11.6417 349.952 12.2739 350.691 12.84 351.48L17.24 356.9L21.71 362.26C22.3689 362.957 22.9709 363.706 23.51 364.5Z" fill="#EBEBEB"/>
<path d="M80.56 356.81C78.9576 356.133 77.572 355.028 76.5543 353.617C75.5366 352.207 74.9258 350.543 74.7886 348.809C74.6514 347.075 74.993 345.336 75.7762 343.783C76.5594 342.229 77.7541 340.921 79.23 340C84.0559 337.107 89.4969 335.393 95.11 335C101.171 334.436 107.27 335.55 112.74 338.22C119.63 341.58 119.8 352.51 112.02 356.33C100.85 361.76 91.41 361.46 80.56 356.81Z" fill="#263238"/>
<path d="M92.1 222.46L93.1 222.35L96.37 222.04H96.44V222.11C96.74 235.22 97.5 282.55 98.31 338.86C98.31 338.98 98.31 339.1 98.31 339.2V339.45H98.07L94.4 339.75H94.13V339.48L92.6 256.48C92.42 245.94 92.28 237.42 92.18 231.48C92.18 228.56 92.11 226.29 92.09 224.73C92.09 223.98 92.09 223.4 92.09 222.99C92.09 222.58 92.09 222.4 92.09 222.4C92.09 222.4 92.09 222.62 92.09 223.02C92.09 223.42 92.09 224.02 92.15 224.8C92.15 226.37 92.24 228.66 92.32 231.61C92.45 237.52 92.65 246.06 92.89 256.61C93.38 277.8 94 307 94.67 339.51L94.39 339.25L98.05 338.95L97.81 339.21V338.87C97 282.56 96.41 235.22 96.33 222.11L96.4 222.17L93.16 222.4L92.1 222.46Z" fill="#263238"/>
<path d="M85 233.54L85.52 233.18L87.13 232.1L93.37 228L116.37 212.8L192.94 162.4L193.17 162.25L193.31 162.48L195.63 166.22L195.87 166.61L196 166.83L195.79 166.97C142.87 201.16 98.54 229.69 87.06 236.97L87 237V236.95L85.51 234.37C85.19 233.82 85.06 233.55 85.06 233.55C85.06 233.55 85.24 233.83 85.57 234.38C85.9 234.93 86.42 235.76 87.1 236.89H87.02C98.38 229.41 142.62 200.73 195.53 166.54L195.45 166.9C195.377 166.766 195.297 166.635 195.21 166.51C194.42 165.22 193.63 163.95 192.89 162.76L193.26 162.84L116.7 212.93L93.56 228L87.26 232.1L85.61 233.16C85.23 233.43 85 233.54 85 233.54Z" fill="#263238"/>
<path d="M99.4 230.93C99.437 232.033 99.146 233.123 98.5638 234.06C97.9815 234.998 97.1343 235.742 96.1292 236.198C95.1241 236.654 94.0063 236.802 92.9171 236.623C91.828 236.444 90.8165 235.946 90.0105 235.191C89.2046 234.437 88.6404 233.461 88.3894 232.386C88.1383 231.311 88.2117 230.186 88.6002 229.153C88.9888 228.12 89.675 227.225 90.5721 226.582C91.4691 225.939 92.5368 225.576 93.64 225.54C95.1184 225.491 96.5557 226.032 97.6358 227.043C98.7159 228.053 99.3504 229.452 99.4 230.93Z" fill="#263238"/>
<path d="M188.9 171.36C188.9 171.36 175.53 178.95 184.79 210.9C184.79 210.9 221.32 210.44 234.98 189.58C234.98 189.58 221.98 162.41 205.53 165.09L188.9 171.36Z" fill="#7E57C2"/>
<path d="M189.32 165.69L186.39 158C186.081 157.191 185.945 156.326 185.992 155.461C186.039 154.596 186.268 153.751 186.663 152.981C187.058 152.21 187.611 151.531 188.286 150.988C188.961 150.445 189.743 150.051 190.58 149.83C192.049 149.439 193.612 149.603 194.968 150.291C196.324 150.979 197.378 152.143 197.93 153.56L201.21 162.02L189.32 165.69Z" fill="#7E57C2"/>
<path d="M188.9 171.36L189.13 165.21L200.57 160.38L205.53 165.09L188.9 171.36Z" fill="#263238"/>
<path d="M116.7 341.82C116.726 342.002 116.726 342.188 116.7 342.37C116.669 342.901 116.602 343.428 116.5 343.95C116.103 345.875 115.272 347.685 114.07 349.24C112.243 351.519 109.86 353.29 107.15 354.38C103.852 355.702 100.342 356.417 96.79 356.49C94.91 356.57 93.07 356.49 91.3 356.44C89.5953 356.364 87.8979 356.17 86.22 355.86C83.3249 355.41 80.6205 354.136 78.43 352.19C76.9606 350.854 75.9172 349.115 75.43 347.19C75.3177 346.671 75.2574 346.141 75.25 345.61C75.2332 345.427 75.2332 345.243 75.25 345.06C75.3226 345.759 75.4361 346.454 75.59 347.14C76.1207 348.981 77.1607 350.634 78.59 351.91C80.7567 353.761 83.4011 354.963 86.22 355.38C87.8726 355.672 89.5431 355.853 91.22 355.92C92.97 356.01 94.8 356.04 96.65 355.92C100.141 355.861 103.595 355.184 106.85 353.92C109.506 352.884 111.854 351.187 113.67 348.99C114.871 347.489 115.73 345.746 116.19 343.88C116.61 342.58 116.64 341.82 116.7 341.82Z" fill="#455A64"/>
<path d="M229.34 183C229.24 183.144 229.122 183.275 228.99 183.39L227.93 184.39C227.47 184.84 226.93 185.39 226.19 185.97C225.45 186.55 224.72 187.26 223.79 187.97C222.86 188.68 221.89 189.45 220.79 190.22C219.69 190.99 218.46 191.78 217.18 192.6C214.344 194.307 211.405 195.837 208.38 197.18C205.333 198.48 202.207 199.585 199.02 200.49C197.54 200.87 196.15 201.26 194.81 201.49C193.47 201.72 192.24 201.99 191.1 202.17C189.96 202.35 188.93 202.47 188.02 202.57C187.11 202.67 186.32 202.74 185.68 202.77L184.2 202.84C184.027 202.864 183.852 202.864 183.68 202.84C183.845 202.785 184.016 202.754 184.19 202.75L185.66 202.58C186.3 202.52 187.08 202.44 187.98 202.29C188.88 202.14 189.92 202.05 191.04 201.82C192.16 201.59 193.41 201.4 194.72 201.08C196.03 200.76 197.43 200.41 198.89 200.02C205.206 198.203 211.258 195.567 216.89 192.18C218.17 191.37 219.41 190.63 220.51 189.85C221.61 189.07 222.64 188.36 223.51 187.67C224.38 186.98 225.23 186.32 225.94 185.75C226.65 185.18 227.26 184.68 227.74 184.25L228.86 183.25C229.007 183.144 229.169 183.06 229.34 183Z" fill="white"/>
<path d="M351.65 262.13L350.36 262.8C349.647 279.58 348.933 296.357 348.22 313.13C347.83 322.38 347.47 331.81 350.91 340.88L406.28 355.63C408.484 351.874 409.817 347.67 410.18 343.33C411.958 324.753 412.52 306.08 411.86 287.43C411.7 281.59 412.22 268.05 406.86 264.43C397.79 258.34 389.4 260.43 380.23 258.37C371.06 256.31 361.64 261.26 352.23 261.16" fill="#263238"/>
<path d="M325 321.31L308.68 295.47C308 295.47 260.54 304.99 260.54 304.99C260.54 304.99 227.48 307.85 226.67 308.39C225.86 308.93 215.79 327.57 215.79 327.57C222.45 328.66 225.17 320.09 225.17 320.09L231.84 316.28L240 317.28C237.67 318.34 235.7 319.4 235.1 320.14C233.33 322.31 232.38 326.53 233.47 326.67C234.56 326.81 236.54 323.67 241.67 322.99C246.8 322.31 259.81 319.59 259.81 319.59L264.48 320.14L325 321.31Z" fill="#FDCFB5"/>
<path d="M248.15 313.9C246.642 314.647 245.097 315.314 243.52 315.9C242.012 316.654 240.463 317.321 238.88 317.9C240.229 316.866 241.726 316.04 243.32 315.45C244.841 314.689 246.47 314.166 248.15 313.9Z" fill="#A36957"/>
<path d="M284.14 164.2C285.74 182.55 287.14 202.09 278.47 218.35C280.405 217.949 282.116 216.831 283.26 215.22C282.55 221.31 281.84 227.48 282.84 233.52C283.84 239.56 286.84 245.52 291.97 248.83C292.04 248.07 292.12 247.31 292.19 246.56C294.19 259.5 305.57 270.4 318.59 271.82C324.21 272.44 330.67 270.99 333.65 266.19C335.92 262.53 335.65 257.9 335.27 253.62L328.27 170.03C327.62 162.25 326.82 154.08 322.37 147.68C319.847 144.028 316.293 141.211 312.161 139.589C308.029 137.967 303.508 137.614 299.174 138.575C294.841 139.535 290.892 141.766 287.833 144.982C284.774 148.199 282.743 152.254 282 156.63" fill="#263238"/>
<path d="M321.57 217.93C321.57 217.93 308.04 225.77 303.91 232.27C299.78 238.77 301.32 257 301.32 257C299.63 263.363 298.677 269.899 298.48 276.48C298.48 287.01 306.63 294.73 308.71 300.38C310.79 306.03 309.36 331.84 309.36 331.84L386.36 333.72V280.66L396.6 281.59C396.6 281.59 399.93 229.79 384.45 223.24C368.97 216.69 350.35 210.19 350.35 210.19L321.57 217.93Z" fill="#B587F9"/>
<path d="M397 266.39C396.83 266.699 396.625 266.987 396.39 267.25C395.731 268.021 394.934 268.662 394.04 269.14C392.624 269.9 391.063 270.35 389.46 270.46C387.336 270.588 385.208 270.275 383.21 269.54C380.813 268.648 378.501 267.543 376.3 266.24C373.811 264.742 371.182 263.49 368.45 262.5C365.399 261.53 362.14 261.42 359.03 262.18C355.703 263.089 352.469 264.307 349.37 265.82C346.239 267.352 342.963 268.568 339.59 269.45C336.387 270.209 333.035 270.046 329.92 268.98C327.177 267.922 324.566 266.55 322.14 264.89C320.043 263.458 317.859 262.159 315.6 261C313.719 260.065 311.688 259.469 309.6 259.24C308.037 259.074 306.457 259.199 304.94 259.61C303.645 259.983 302.433 260.601 301.37 261.43C301.612 261.173 301.88 260.942 302.17 260.74C302.994 260.154 303.91 259.708 304.88 259.42C306.418 258.96 308.031 258.8 309.63 258.95C311.742 259.163 313.8 259.745 315.71 260.67C318.001 261.797 320.216 263.073 322.34 264.49C324.751 266.109 327.338 267.451 330.05 268.49C332.302 269.244 334.686 269.52 337.05 269.3C337.86 269.21 338.67 269.07 339.48 268.91C342.817 268.027 346.06 266.818 349.16 265.3C352.29 263.776 355.558 262.554 358.92 261.65C362.114 260.869 365.461 260.99 368.59 262C371.35 263.009 374.003 264.288 376.51 265.82C378.683 267.125 380.965 268.239 383.33 269.15C385.278 269.893 387.357 270.233 389.44 270.15C391.024 270.089 392.577 269.698 394 269C394.886 268.552 395.686 267.949 396.36 267.22C396.8 266.68 397 266.37 397 266.39Z" fill="#FAFAFA"/>
<path d="M394.54 247.09C394.484 247.158 394.42 247.218 394.35 247.27C394.22 247.37 394.04 247.54 393.76 247.73C392.961 248.271 392.079 248.679 391.15 248.94C388.74 249.68 384.9 249.56 380.75 247.8C378.68 246.93 376.54 245.73 374.22 244.53C371.804 243.173 369.194 242.198 366.48 241.64C363.458 241.159 360.374 241.237 357.38 241.87C354.149 242.535 350.978 243.465 347.9 244.65C344.71 245.82 341.61 247.02 338.51 247.92C335.541 248.842 332.458 249.347 329.35 249.42C324.073 249.348 318.89 248.017 314.23 245.54C311.075 243.931 308.064 242.054 305.23 239.93C304.23 239.17 303.47 238.58 302.96 238.16L302.39 237.69C302.26 237.58 302.19 237.52 302.2 237.51C302.21 237.5 302.28 237.51 302.42 237.65L303.02 238.08L305.35 239.76C308.203 241.809 311.212 243.632 314.35 245.21C318.972 247.607 324.093 248.885 329.3 248.94C332.355 248.848 335.383 248.34 338.3 247.43C341.36 246.54 344.46 245.33 347.65 244.16C350.754 242.968 353.952 242.035 357.21 241.37C360.265 240.732 363.411 240.664 366.49 241.17C369.25 241.756 371.902 242.768 374.35 244.17C376.67 245.39 378.79 246.6 380.83 247.48C384.89 249.26 388.65 249.43 391.02 248.77C392.29 248.44 393.485 247.87 394.54 247.09Z" fill="#FAFAFA"/>
<path d="M360 297.23C359.827 297.337 359.647 297.431 359.46 297.51C359.11 297.67 358.58 297.91 357.89 298.2C355.95 299.035 353.943 299.704 351.89 300.2C348.813 301.026 345.56 300.925 342.54 299.91C339.14 298.73 336 296.31 332.62 294.1C329.483 291.949 325.913 290.511 322.16 289.89C320.522 289.646 318.866 289.545 317.21 289.59C315.769 289.64 314.335 289.803 312.92 290.08C310.863 290.481 308.865 291.136 306.97 292.03C305.62 292.65 304.92 293.09 304.89 293.03C305.036 292.891 305.201 292.773 305.38 292.68C305.864 292.369 306.364 292.085 306.88 291.83C308.772 290.845 310.791 290.129 312.88 289.7C314.316 289.395 315.774 289.204 317.24 289.13C318.911 289.077 320.584 289.167 322.24 289.4C326.07 290.004 329.719 291.452 332.92 293.64C336.32 295.88 339.41 298.27 342.71 299.44C345.647 300.441 348.81 300.573 351.82 299.82C353.862 299.341 355.867 298.716 357.82 297.95L359.42 297.35C359.607 297.282 359.802 297.242 360 297.23Z" fill="#FAFAFA"/>
<path d="M359.83 316.18C359.83 316.23 359.12 316.04 357.83 315.85C356.007 315.602 354.163 315.555 352.33 315.71C349.623 315.964 346.945 316.467 344.33 317.21C341.33 318.02 338.13 319.11 334.67 320.06C331.42 321.013 328.057 321.528 324.67 321.59C321.889 321.592 319.136 321.041 316.57 319.97C314.845 319.244 313.276 318.191 311.95 316.87C311.59 316.507 311.256 316.119 310.95 315.71C310.839 315.573 310.742 315.426 310.66 315.27C310.71 315.27 311.13 315.83 312.07 316.72C313.421 317.967 314.991 318.954 316.7 319.63C319.23 320.63 321.929 321.133 324.65 321.11C327.99 321.019 331.305 320.494 334.51 319.55C337.95 318.62 341.18 317.55 344.19 316.75C346.848 316.019 349.571 315.547 352.32 315.34C354.179 315.219 356.046 315.323 357.88 315.65C358.377 315.742 358.867 315.862 359.35 316.01C359.518 316.042 359.68 316.099 359.83 316.18Z" fill="#FAFAFA"/>
<path d="M359.73 292.67C359.59 292.67 359.47 285.42 359.47 276.48C359.47 267.54 359.59 260.29 359.73 260.29C359.87 260.29 360 267.54 360 276.48C360 285.42 359.88 292.67 359.73 292.67Z" fill="#263238"/>
<path d="M352.46 302.47C352.328 302.515 352.189 302.536 352.05 302.53C351.77 302.53 351.37 302.59 350.84 302.58C349.359 302.59 347.881 302.446 346.43 302.15C341.571 301.237 337.109 298.853 333.65 295.32C330.191 291.788 327.901 287.277 327.09 282.4C326.826 280.942 326.712 279.461 326.75 277.98C326.75 277.45 326.81 277.05 326.83 276.78C326.83 276.637 326.853 276.495 326.9 276.36C326.921 278.372 327.105 280.378 327.45 282.36C328.348 287.123 330.636 291.513 334.027 294.976C337.417 298.44 341.757 300.821 346.5 301.82C348.466 302.196 350.459 302.413 352.46 302.47Z" fill="#263238"/>
<g opacity="0.3">
<path d="M311.81 327.06C323 320.4 338 321.53 348.07 313.28C352.82 309.39 355.9 303.79 357.75 297.94C359.6 292.09 360.29 285.94 360.98 279.87L362.9 313.79C363.03 316.1 363.08 318.67 361.57 320.44C360.3 321.93 358.24 322.44 356.33 322.86L331.79 328.32C325.15 329.79 318.06 331.24 311.71 328.8" fill="black"/>
</g>
<g opacity="0.2">
<path d="M343.82 242.76C341.71 245.36 339.57 248.02 338.42 251.17C337.27 254.32 337.28 258.08 339.29 260.76C341.48 263.68 345.6 264.64 349.18 263.93C352.76 263.22 355.9 261.1 358.74 258.82C360.16 257.68 361.74 256.43 363.53 256.47C364.593 256.621 365.643 256.855 366.67 257.17C369.62 257.69 372.54 255.77 374.22 253.3C375.9 250.83 376.65 247.87 377.6 245.03C378.55 242.19 379.85 239.32 382.25 237.53C384.48 235.87 387.59 235.2 388.97 232.79C390.71 229.79 388.44 225.73 385.25 224.32C382.06 222.91 378.41 223.39 374.97 223.88" fill="black"/>
</g>
<g opacity="0.2">
<path d="M349.14 302.08C349.33 302.37 349.09 302.97 348.29 303.67C347.114 304.613 345.71 305.23 344.22 305.46C341.993 305.836 339.706 305.632 337.58 304.87C335.015 303.921 332.719 302.363 330.89 300.33C329.14 298.398 327.736 296.179 326.74 293.77C325.962 291.912 325.379 289.978 325 288C324.41 284.65 324.53 282.54 325.2 282.34C325.87 282.14 327.06 283.94 328.5 286.83C329.94 289.72 331.75 293.62 334.71 296.83C336.038 298.313 337.624 299.543 339.39 300.46C340.839 301.178 342.403 301.638 344.01 301.82C346.82 302.11 348.72 301.44 349.14 302.08Z" fill="black"/>
</g>
<path d="M396.64 281.59C396.64 281.73 388.35 281.1 378.16 280.17C367.97 279.24 359.72 278.38 359.73 278.23C359.74 278.08 368.02 278.72 378.21 279.65C388.4 280.58 396.65 281.44 396.64 281.59Z" fill="#263238"/>
<path d="M335.52 136.72C340.07 140.72 343.59 143.86 348.41 146.9C353.23 149.94 358.22 153.57 360.01 158.99C361.31 162.92 360.83 167.59 363.44 170.81C365.67 173.56 369.44 174.37 372.57 176.03C375.308 177.538 377.594 179.751 379.188 182.439C380.783 185.128 381.63 188.194 381.64 191.32C381.64 195.32 380.25 199.56 382.13 203.07C383.77 206.13 387.44 207.63 389.26 210.59C391.08 213.55 390.74 216.99 390.17 220.25C389.3 225.25 387.45 230.63 382.99 233.03C381.437 233.779 379.743 234.191 378.019 234.237C376.295 234.284 374.581 233.964 372.99 233.3C369.818 231.955 366.971 229.947 364.64 227.41C359.997 222.68 356.376 217.047 354 210.86C351.16 203.48 350.19 195.53 348.82 187.74C346.299 173.453 342.397 159.444 337.17 145.91C335.89 142.61 333.61 139.69 335.54 136.72" fill="#263238"/>
<path d="M277.71 192.35L295.09 181.84C295.432 181.634 295.842 181.572 296.23 181.667C296.618 181.763 296.953 182.008 297.16 182.35C297.366 182.692 297.428 183.102 297.333 183.49C297.237 183.878 296.992 184.213 296.65 184.42L279.27 194.93L277.71 192.35Z" fill="#B587F9"/>
<g opacity="0.4">
<path d="M296.65 184.42L295.09 181.84C295.432 181.634 295.842 181.572 296.23 181.667C296.618 181.763 296.953 182.008 297.16 182.35C297.366 182.692 297.428 183.102 297.333 183.49C297.237 183.878 296.992 184.213 296.65 184.42Z" fill="black"/>
</g>
<g opacity="0.4">
<path d="M278.788 194.081L296.151 183.582L295.716 182.863L278.353 193.362L278.788 194.081Z" fill="black"/>
</g>
<path d="M279.27 194.93L274.84 195.85L277.71 192.35L279.27 194.93Z" fill="#B587F9"/>
<g opacity="0.5">
<path d="M279.27 194.93L274.84 195.85L277.71 192.35L279.27 194.93Z" fill="white"/>
</g>
<path d="M276.28 195.55L275.78 194.71L274.84 195.85L276.28 195.55Z" fill="#263238"/>
<path d="M305.2 143C299.2 144.971 294.191 149.178 291.211 154.745C288.232 160.313 287.511 166.815 289.2 172.9C291.92 182.7 295.04 193.3 297.42 199.44C302.97 213.72 314.71 213.15 314.71 213.15C314.71 213.15 316.91 222.37 318.84 231.15C320.67 239.53 329.46 244.89 338.48 243.15C347.4 241.42 353.22 233.35 351.53 225.02L336.81 160.82C336.044 157.492 334.592 154.361 332.548 151.626C330.504 148.891 327.912 146.612 324.937 144.935C321.962 143.258 318.671 142.22 315.273 141.887C311.874 141.554 308.444 141.933 305.2 143Z" fill="#FDCFB5"/>
<path d="M294.9 177.82C295.015 178.31 295.311 178.739 295.728 179.02C296.145 179.302 296.653 179.416 297.15 179.34C297.394 179.306 297.63 179.223 297.842 179.097C298.054 178.971 298.239 178.804 298.386 178.606C298.533 178.408 298.639 178.182 298.699 177.943C298.758 177.703 298.768 177.454 298.73 177.21C298.628 176.715 298.337 176.279 297.919 175.995C297.501 175.711 296.988 175.602 296.49 175.69C296.244 175.722 296.007 175.803 295.793 175.928C295.579 176.053 295.392 176.22 295.244 176.418C295.096 176.617 294.989 176.843 294.93 177.084C294.871 177.325 294.86 177.575 294.9 177.82Z" fill="#263238"/>
<path d="M293.6 175.51C293.89 175.71 295.1 174.34 297.14 173.9C299.18 173.46 300.9 174.16 301.06 173.9C301.15 173.77 300.81 173.38 300.06 173.04C299.044 172.62 297.923 172.522 296.85 172.76C295.788 172.992 294.826 173.551 294.1 174.36C293.58 174.93 293.46 175.43 293.6 175.51Z" fill="#263238"/>
<path d="M315.8 174.09C315.902 174.585 316.193 175.021 316.611 175.305C317.03 175.589 317.542 175.699 318.04 175.61C318.286 175.578 318.523 175.498 318.737 175.373C318.951 175.247 319.138 175.081 319.286 174.882C319.435 174.683 319.541 174.457 319.6 174.216C319.66 173.975 319.67 173.725 319.63 173.48C319.515 172.99 319.22 172.561 318.802 172.28C318.385 171.998 317.878 171.884 317.38 171.96C317.135 171.993 316.899 172.075 316.686 172.2C316.473 172.326 316.288 172.493 316.14 172.691C315.993 172.89 315.887 173.116 315.829 173.356C315.77 173.597 315.76 173.846 315.8 174.09Z" fill="#263238"/>
<path d="M315.06 171.65C315.35 171.85 316.56 170.47 318.6 170.04C320.64 169.61 322.36 170.3 322.52 170.04C322.61 169.91 322.27 169.51 321.52 169.18C320.505 168.755 319.383 168.657 318.31 168.9C317.248 169.124 316.284 169.681 315.56 170.49C315 171.07 314.92 171.57 315.06 171.65Z" fill="#263238"/>
<path d="M310.92 188.39C309.773 188.286 308.617 188.327 307.48 188.51C306.95 188.57 306.43 188.57 306.26 188.23C306.099 187.702 306.099 187.138 306.26 186.61C306.48 185.25 306.7 183.81 306.94 182.31C307.86 176.2 308.41 171.22 308.16 171.18C307.91 171.14 306.97 176.07 306.05 182.18C305.84 183.68 305.63 185.12 305.44 186.49C305.241 187.188 305.301 187.934 305.61 188.59C305.723 188.755 305.871 188.893 306.044 188.993C306.217 189.094 306.411 189.154 306.61 189.17C306.915 189.186 307.221 189.162 307.52 189.1C308.68 189.014 309.823 188.776 310.92 188.39Z" fill="#263238"/>
<path d="M314.73 212.85C321.719 211.45 328.183 208.137 333.4 203.28C333.4 203.28 330.79 214.48 315.69 216.28L314.73 212.85Z" fill="#A36957"/>
<path d="M320.13 164.22C319.98 164.64 318.36 164.44 316.42 164.55C314.48 164.66 312.88 165 312.7 164.55C312.52 164.1 314.06 163.06 316.34 162.95C318.62 162.84 320.28 163.83 320.13 164.22Z" fill="#263238"/>
<path d="M299.23 166.15C299.23 166.59 297.58 166.99 295.62 167.58C293.66 168.17 292.03 168.7 291.8 168.32C291.57 167.94 292.99 166.71 295.18 166.08C297.37 165.45 299.23 165.73 299.23 166.15Z" fill="#263238"/>
<path d="M318.38 188.74C318.1 188.74 318.46 190.62 317.15 192.25C315.84 193.88 313.82 194.06 313.86 194.32C313.9 194.58 314.37 194.59 315.21 194.45C316.294 194.252 317.273 193.674 317.97 192.82C318.641 192.002 318.968 190.955 318.88 189.9C318.8 189.12 318.5 188.7 318.38 188.74Z" fill="#263238"/>
<path d="M337.33 194.33C339.281 196.307 340.678 198.762 341.38 201.449C342.082 204.137 342.065 206.962 341.33 209.64C340.33 213.15 338.08 216.27 337.57 219.88C336.94 224.28 338.97 228.56 340.66 232.67C342.35 236.78 343.77 241.49 341.97 245.55C341.23 247.25 339.97 248.69 339.2 250.38C338.43 252.07 338.27 254.28 339.56 255.61C340.556 256.451 341.816 256.915 343.12 256.92C347.944 257.258 352.759 256.141 356.943 253.715C361.126 251.289 364.487 247.665 366.59 243.31L368.59 247.66C372.944 241.087 374.917 233.221 374.181 225.37C373.444 217.52 370.042 210.158 364.54 204.51" fill="#263238"/>
<path d="M331.42 173.62C331.2 172.62 333.21 170.17 334.18 169.91C336.42 169.33 340.32 169.38 342.1 175.53C344.65 184.32 335.57 184.07 335.48 183.82C335.39 183.57 332.19 177.08 331.42 173.62Z" fill="#FDCFB5"/>
<path d="M336.64 179.87C336.64 179.87 336.82 179.94 337.12 179.98C337.529 180.03 337.941 179.918 338.27 179.67C339.1 179.06 339.45 177.36 339.04 175.77C338.855 175.01 338.499 174.302 338 173.7C337.839 173.448 337.62 173.239 337.36 173.091C337.101 172.943 336.809 172.86 336.51 172.85C336.322 172.858 336.143 172.93 336.001 173.054C335.859 173.177 335.764 173.345 335.73 173.53C335.68 173.82 335.79 173.97 335.73 174C335.67 174.03 335.5 173.91 335.46 173.53C335.446 173.298 335.513 173.068 335.65 172.88C335.837 172.626 336.118 172.457 336.43 172.41C336.813 172.376 337.197 172.441 337.548 172.599C337.898 172.756 338.202 173.001 338.43 173.31C339.023 173.96 339.445 174.747 339.66 175.6C340.12 177.39 339.66 179.31 338.53 180.05C338.313 180.187 338.069 180.273 337.814 180.302C337.56 180.332 337.302 180.304 337.06 180.22C336.72 180.08 336.61 179.9 336.64 179.87Z" fill="#A36957"/>
<path d="M378.72 198.76C378.61 198.76 378.72 198.34 378.72 197.63C378.753 196.601 378.562 195.578 378.16 194.63C377.527 193.157 376.533 191.868 375.27 190.88C373.504 189.612 371.546 188.636 369.47 187.99C366.784 187.179 364.184 186.104 361.71 184.78C360.26 183.938 358.995 182.812 357.99 181.47C356.994 180.049 356.222 178.485 355.7 176.83C355.14 175.22 354.7 173.59 354.07 172.07C353.531 170.584 352.651 169.244 351.5 168.16C349.17 166.09 345.5 165.64 341.87 165.92C338.24 166.2 334.43 167.12 330.54 166.81C328.612 166.659 326.729 166.147 324.99 165.3C323.378 164.5 321.879 163.492 320.53 162.3C318.187 160.109 316.03 157.727 314.08 155.18C312.45 153.064 310.607 151.12 308.58 149.38C307.179 148.114 305.527 147.159 303.731 146.577C301.935 145.994 300.037 145.798 298.16 146C297.134 146.14 296.14 146.454 295.22 146.93C294.57 147.25 294.22 147.45 294.17 147.38C294.12 147.31 294.34 146.98 294.93 146.49C295.809 145.78 296.833 145.271 297.93 145C299.682 144.576 301.506 144.549 303.27 144.92C305.61 145.418 307.806 146.444 309.69 147.92C311.898 149.649 313.91 151.614 315.69 153.78C317.639 156.167 319.765 158.403 322.05 160.47C324.433 162.664 327.474 164.01 330.7 164.3C334.06 164.55 337.7 163.7 341.63 163.36C343.634 163.177 345.653 163.275 347.63 163.65C349.671 164.02 351.577 164.928 353.15 166.28C354.584 167.64 355.677 169.319 356.34 171.18C357 172.9 357.43 174.56 357.93 176.09C358.351 177.536 358.985 178.911 359.81 180.17C360.614 181.296 361.634 182.251 362.81 182.98C365.13 184.308 367.567 185.419 370.09 186.3C372.301 187.106 374.355 188.29 376.16 189.8C377.53 191.014 378.54 192.581 379.08 194.33C379.424 195.429 379.466 196.6 379.2 197.72C379 198.46 378.78 198.79 378.72 198.76Z" fill="#455A64"/>
<path d="M335.07 135.05C334.471 135.212 333.845 135.253 333.23 135.17C331.729 135.071 330.26 134.691 328.9 134.05C327.545 133.408 326.321 132.519 325.29 131.43C324.831 131.012 324.466 130.5 324.22 129.93C325.599 131.46 327.268 132.701 329.131 133.58C330.993 134.459 333.012 134.959 335.07 135.05Z" fill="#B587F9"/>
<path d="M288.59 181.9C288.577 181.366 288.601 180.831 288.66 180.3C288.635 178.847 288.43 177.403 288.05 176C287.424 173.927 286.649 171.901 285.73 169.94C284.582 167.519 283.667 164.995 283 162.4C282.689 161.03 282.568 159.623 282.64 158.22C282.725 156.909 283.04 155.622 283.57 154.42C284.454 152.383 285.849 150.61 287.62 149.27C288.816 148.359 290.173 147.68 291.62 147.27C292.005 147.155 292.4 147.075 292.8 147.03C293.08 146.99 293.22 146.99 293.22 147.03C293.22 147.09 292.66 147.16 291.68 147.49C289.979 148.073 288.419 149.008 287.104 150.235C285.79 151.462 284.749 152.953 284.05 154.61C283.554 155.768 283.263 157.003 283.19 158.26C283.126 159.604 283.247 160.949 283.55 162.26C284.212 164.824 285.109 167.321 286.23 169.72C287.135 171.707 287.878 173.763 288.45 175.87C288.808 177.308 288.963 178.789 288.91 180.27C288.86 180.79 288.78 181.2 288.74 181.47C288.7 181.74 288.61 181.91 288.59 181.9Z" fill="#455A64"/>
<path d="M297.82 253.33C297.615 253.228 297.418 253.111 297.23 252.98C296.675 252.633 296.143 252.249 295.64 251.83C293.803 250.271 292.254 248.403 291.06 246.31C289.3 243.19 288.14 239.767 287.64 236.22C287.09 231.9 287.144 227.525 287.8 223.22C288.43 218.62 289.37 214.32 290.11 210.39C290.808 206.922 291.305 203.416 291.6 199.89C291.783 197.517 291.783 195.133 291.6 192.76C291.46 191.07 291.29 190.15 291.35 190.14C291.418 190.359 291.468 190.583 291.5 190.81C291.6 191.24 291.69 191.89 291.8 192.74C292.062 195.124 292.116 197.527 291.96 199.92C291.71 203.465 291.245 206.991 290.57 210.48C289.85 214.42 288.93 218.72 288.31 223.29C287.655 227.561 287.584 231.9 288.1 236.19C288.567 239.696 289.675 243.086 291.37 246.19C292.518 248.275 294.005 250.154 295.77 251.75C297 252.79 297.85 253.27 297.82 253.33Z" fill="#455A64"/>
<path d="M342.41 251.24C342.41 251.24 342.41 251.17 342.59 251.06L343.16 250.58C343.67 250.16 344.41 249.58 345.34 248.72C347.982 246.417 350.357 243.824 352.42 240.99C355.514 236.81 357.412 231.867 357.91 226.69C358.191 223.648 357.823 220.58 356.83 217.69C355.83 214.69 353.78 212.03 352.1 209.06C351.229 207.597 350.579 206.013 350.17 204.36C349.823 202.745 349.692 201.09 349.78 199.44C349.91 196.21 350.49 193.17 350.55 190.25C350.644 187.487 350.334 184.724 349.63 182.05C349.015 179.719 347.974 177.523 346.56 175.57C344.505 172.726 341.565 170.644 338.2 169.65C336.958 169.33 335.683 169.156 334.4 169.13H334.65H335.4C336.361 169.154 337.316 169.281 338.25 169.51C341.702 170.451 344.736 172.53 346.86 175.41C348.315 177.391 349.396 179.621 350.05 181.99C350.791 184.703 351.128 187.509 351.05 190.32C351.05 193.32 350.43 196.32 350.31 199.52C350.223 201.123 350.351 202.731 350.69 204.3C351.089 205.907 351.723 207.447 352.57 208.87C354.22 211.79 356.3 214.48 357.33 217.58C358.339 220.535 358.707 223.672 358.41 226.78C357.887 232.038 355.921 237.049 352.73 241.26C350.63 244.095 348.199 246.67 345.49 248.93C344.49 249.73 343.78 250.32 343.25 250.71L342.64 251.15C342.566 251.187 342.489 251.217 342.41 251.24Z" fill="#455A64"/>
<path d="M337.61 140C337.603 140.152 337.579 140.303 337.54 140.45C337.54 140.62 337.46 140.8 337.41 141L337.17 141.73C336.586 143.265 335.683 144.659 334.52 145.82C332.807 147.574 330.616 148.784 328.22 149.3C326.801 149.592 325.339 149.62 323.91 149.38C322.393 149.104 320.916 148.643 319.51 148.01C316.62 146.73 314.12 145.08 311.71 143.9C309.624 142.762 307.333 142.048 304.97 141.8C303.375 141.654 301.768 141.873 300.27 142.44C299.27 142.87 298.72 143.26 298.69 143.22C298.792 143.104 298.91 143.003 299.04 142.92C299.403 142.664 299.788 142.44 300.19 142.25C301.703 141.601 303.348 141.32 304.99 141.43C307.412 141.62 309.769 142.301 311.92 143.43C314.38 144.61 316.92 146.24 319.72 147.49C321.083 148.134 322.521 148.608 324 148.9C325.365 149.156 326.765 149.156 328.13 148.9C330.449 148.423 332.58 147.288 334.27 145.63C335.426 144.519 336.351 143.19 336.99 141.72L337.28 141.02L337.45 140.5C337.53 140.17 337.59 140 337.61 140Z" fill="#455A64"/>
<path d="M317.9 358.28L255.14 388.61L140.09 357.24L196.57 326.38L317.9 358.28Z" fill="#263238"/>
<path d="M248.7 357L265.36 362.5L280.79 354.12L255.11 345.88L240.12 353.65L248.7 357Z" fill="#455A64"/>
<path d="M125.45 272.52C125.97 274.61 140.09 357.24 140.09 357.24L255.09 388.61L240 300.23L125.45 272.52Z" fill="#263238"/>
<path d="M246.77 339.82C246.91 339.82 248.9 350.7 251.21 364.17C253.52 377.64 255.28 388.59 255.14 388.61C255 388.63 253.01 377.74 250.7 364.26C248.39 350.78 246.63 339.84 246.77 339.82Z" fill="#455A64"/>
<path d="M186.628 332.941C189.739 331.736 191.125 327.829 189.725 324.214C188.325 320.598 184.668 318.644 181.557 319.849C178.447 321.053 177.06 324.961 178.46 328.576C179.86 332.191 183.517 334.146 186.628 332.941Z" fill="#455A64"/>
<path d="M303.91 346.05C303.91 346.05 371.28 351.82 382.43 343.74C393.58 335.66 393.59 281.42 393.59 281.42L360.21 278.34L359.73 316.04C357.43 317.96 299.34 327.58 294.34 327.2C294.34 327.2 263.89 330.45 262.23 330.45C260.57 330.45 249.55 343 249.55 343.58C249.588 344.019 249.715 344.446 249.923 344.834C250.131 345.223 250.416 345.565 250.76 345.84C250.38 346.318 250.186 346.918 250.213 347.528C250.241 348.138 250.488 348.718 250.91 349.16C250.91 349.16 250.46 351.28 252.12 351.73C253.78 352.18 253.93 352.94 255.89 351.73C257.85 350.52 267.51 343 267.51 343L274.76 342.39C274.76 342.39 257.1 352.5 258.61 354.77C260.12 357.04 263.61 354.47 267.51 352.35C271.41 350.23 277.93 346.47 279.13 346.16C280.33 345.85 303.91 346.05 303.91 346.05Z" fill="#FDCFB5"/>
<path d="M272 336.55C272 336.65 270.6 336.64 268.44 337.2C265.638 337.985 263.002 339.272 260.66 341C258.331 342.759 256.144 344.698 254.12 346.8C253.304 347.704 252.428 348.552 251.5 349.34C251.667 349.056 251.865 348.791 252.09 348.55C252.5 348.07 253.09 347.38 253.85 346.55C255.813 344.337 257.994 342.327 260.36 340.55C262.748 338.779 265.469 337.507 268.36 336.81C269.237 336.613 270.131 336.499 271.03 336.47C271.356 336.444 271.683 336.471 272 336.55Z" fill="#A36957"/>
<path d="M268.21 334.08C268.21 334.18 267 334.16 265.14 334.67C262.724 335.364 260.463 336.515 258.48 338.06C256.498 339.629 254.654 341.365 252.97 343.25C252.29 344.053 251.555 344.809 250.77 345.51C251.334 344.615 251.98 343.775 252.7 343C254.323 341.027 256.154 339.233 258.16 337.65C260.191 336.055 262.54 334.916 265.05 334.31C265.808 334.134 266.582 334.037 267.36 334.02C267.645 333.989 267.933 334.009 268.21 334.08Z" fill="#A36957"/>
<path d="M370.32 327.49C370.23 327.49 370.01 326.6 369.41 325.24C367.82 321.674 365.047 318.767 361.56 317.01C360.23 316.35 359.33 316.08 359.36 316.01C360.182 316.097 360.981 316.331 361.72 316.7C363.543 317.507 365.188 318.666 366.561 320.111C367.934 321.556 369.007 323.258 369.72 325.12C370.061 325.868 370.264 326.67 370.32 327.49Z" fill="#AA6550"/>
<path d="M375.55 219.59C375.55 219.59 367.55 210.77 368.16 200.65C368.77 190.53 365.65 183.97 359.99 181.65C355.99 180.02 354.44 175.93 353.83 172.52C352.877 166.793 351.196 161.212 348.83 155.91C345.31 148.31 340.62 140.48 334.09 135.56C325.6 129.16 312.27 124.88 304.09 131.64C300.28 134.78 298.04 135.28 294.64 140.64C294.64 140.64 290.55 142.07 288.44 143.03C281.18 146.33 278.52 155.81 279.29 162.03C281.07 176.34 289.74 178.15 293.13 187.28C293.13 187.28 289.06 167.41 289.38 161.94C289.767 157.9 291.566 154.126 294.46 151.28C300.22 150.28 303.27 152.97 306.58 157.8C309.89 162.63 312.05 166.58 317.48 168.8C322.59 170.88 327.14 175.5 334.06 170.6C336.269 173.077 337.705 176.147 338.19 179.43C338.68 184.43 333.79 187.18 337.38 194.85C340.97 202.52 347.68 207.72 348.38 210.77" fill="#263238"/>
<path d="M369.391 230.27C369.391 230.27 369.661 230.09 370.181 229.76C370.935 229.279 371.663 228.758 372.361 228.2C373.46 227.327 374.444 226.319 375.291 225.2C376.412 223.716 377.138 221.971 377.401 220.13C377.674 217.896 377.107 215.64 375.811 213.8C375.098 212.788 374.113 211.998 372.971 211.52C371.719 211.092 370.405 210.873 369.081 210.87C367.62 210.874 366.181 210.506 364.901 209.8C363.618 208.933 362.694 207.628 362.301 206.13C361.87 204.624 361.73 203.049 361.891 201.49C362.041 199.92 362.351 198.37 362.571 196.8C362.816 195.27 362.816 193.71 362.571 192.18C362.266 190.714 361.652 189.33 360.771 188.12C359.04 185.836 356.805 183.981 354.241 182.7C351.831 181.39 349.401 180.37 347.241 179.21C342.27 176.623 337.666 173.385 333.551 169.58C332.691 168.79 332.051 168.14 331.631 167.7L331.151 167.19C331.041 167.07 330.991 167.01 331.001 167L331.181 167.15L331.701 167.63C332.151 168.05 332.811 168.63 333.701 169.43C336.165 171.623 338.789 173.628 341.551 175.43C343.455 176.676 345.424 177.818 347.451 178.85C349.621 179.98 352.051 180.98 354.501 182.3C357.134 183.611 359.432 185.506 361.221 187.84C362.146 189.11 362.79 190.562 363.111 192.1C363.371 193.686 363.371 195.304 363.111 196.89C362.901 198.48 362.581 200.02 362.441 201.55C362.284 203.044 362.413 204.554 362.821 206C363.175 207.385 364.021 208.594 365.201 209.4C366.412 210.062 367.771 210.406 369.151 210.4C370.514 210.416 371.866 210.656 373.151 211.11C374.361 211.626 375.4 212.471 376.151 213.55C377.491 215.488 378.065 217.854 377.761 220.19C377.462 222.085 376.688 223.874 375.511 225.39C374.648 226.518 373.639 227.527 372.511 228.39C371.8 228.944 371.048 229.442 370.261 229.88C369.991 230.04 369.781 230.14 369.641 230.21C369.563 230.246 369.478 230.266 369.391 230.27Z" fill="#263238"/>
<path d="M254.56 398.27C251.63 398.99 250.32 402.77 251.3 405.62C252.28 408.47 254.87 410.45 257.49 411.93C265.4 416.38 275.9 417.43 283.25 412.11C286.47 409.79 288.99 405.67 287.66 401.93C286.5 398.66 282.91 396.93 279.56 396.05C270.523 393.636 260.933 394.384 252.38 398.17" fill="#E0E0E0"/>
<path d="M250.25 374.61C250.25 374.61 244.83 410.61 270.01 409.49C293.61 408.41 285.34 373.33 285.34 373.33L250.25 374.61Z" fill="#455A64"/>
<path d="M281.38 399.5C283.362 400.805 285.631 401.611 287.993 401.848C290.354 402.084 292.738 401.746 294.94 400.86C297.127 399.934 299.044 398.472 300.516 396.609C301.988 394.746 302.966 392.541 303.36 390.2C303.705 387.851 303.43 385.452 302.561 383.241C301.693 381.031 300.262 379.086 298.41 377.6C296.523 376.159 294.28 375.256 291.921 374.986C289.562 374.717 287.174 375.091 285.01 376.07L284.65 380.18C285.999 379.568 287.489 379.334 288.961 379.501C290.433 379.668 291.832 380.231 293.01 381.13C294.165 382.059 295.058 383.274 295.6 384.655C296.142 386.035 296.314 387.533 296.1 389C295.851 390.462 295.238 391.837 294.319 393.001C293.4 394.164 292.204 395.079 290.84 395.66C289.465 396.209 287.979 396.418 286.506 396.27C285.033 396.122 283.618 395.621 282.38 394.81L281.38 399.5Z" fill="#455A64"/>
<path d="M285.34 373.33C285.44 375.56 277.66 377.73 267.96 378.18C258.26 378.63 250.3 377.18 250.2 374.95C250.1 372.72 257.88 370.54 267.58 370.09C277.28 369.64 285.24 371.09 285.34 373.33Z" fill="#7E57C2"/>
<g opacity="0.2">
<path d="M286.39 379.64C285.362 380.013 284.462 380.671 283.794 381.537C283.127 382.403 282.719 383.441 282.62 384.53C282.536 386.731 283.047 388.915 284.1 390.85C284.39 391.45 284.89 392.14 285.55 392.02C286.21 391.9 286.41 391.11 286.48 390.47C286.992 386.929 286.959 383.331 286.38 379.8" fill="black"/>
</g>
<path d="M280 376.54C288.17 374.36 263 375.26 254.88 377.54C254.85 377.53 268.22 379.68 280 376.54Z" fill="#263238"/>
</svg>
